<svg xmlns="http://www.w3.org/2000/svg">
  <symbol id="finance" viewBox="0 0 24 24" fill="none" stroke="#A98BB8" stroke-width="1.65" stroke-linecap="round" stroke-linejoin="round">
    <path d="M4 18v3M8 14v7M12 16v5M16 14v7M20 10v11"/>
    <path d="m22 3-8.65 8.65a.5.5 0 0 1-.7 0L9.35 8.35a.5.5 0 0 0-.7 0L2 15"/>
  </symbol>
  <symbol id="companies" viewBox="0 0 24 24" fill="none" stroke="#A98BB8" stroke-width="1.65" stroke-linecap="round" stroke-linejoin="round">
    <path d="M10 8h4M10 12h4M14 21v-3a2 2 0 0 0-4 0v3"/>
    <path d="M6 10H4a2 2 0 0 0-2 2v7a2 2 0 0 0 2 2h16a2 2 0 0 0 2-2V9a2 2 0 0 0-2-2h-2"/>
    <path d="M6 21V5a2 2 0 0 1 2-2h8a2 2 0 0 1 2 2v16"/>
  </symbol>
  <symbol id="miami" viewBox="0 0 24 24" fill="none" stroke="#A98BB8" stroke-width="1.65" stroke-linecap="round" stroke-linejoin="round">
    <path d="M20 10c0 4.99-5.54 10.19-7.4 11.8a1 1 0 0 1-1.2 0C9.54 20.19 4 14.99 4 10a8 8 0 0 1 16 0"/>
    <circle cx="12" cy="10" r="3"/>
  </symbol>
  <symbol id="affiliation" viewBox="0 0 24 24" fill="none" stroke="#A98BB8" stroke-width="1.65" stroke-linecap="round" stroke-linejoin="round">
    <path d="m11 17 2 2a1 1 0 1 0 3-3M21 3l1 11h-2M3 3 2 14l6.5 6.5a1 1 0 1 0 3-3M3 4h8"/>
    <path d="m14 14 2.5 2.5a1 1 0 1 0 3-3l-3.88-3.88a3 3 0 0 0-4.24 0l-.88.88a1 1 0 1 1-3-3l2.81-2.81a5.8 5.8 0 0 1 7.06-.87l.47.28a2 2 0 0 0 1.42.25L21 4"/>
  </symbol>
</svg>
